<svg xmlns="http://www.w3.org/2000/svg" xmlns:xlink="http://www.w3.org/1999/xlink" width="600" height="400" viewBox="0 0 2400 1600" style="width: 100%; height: 100%;">
<defs>
  <clipPath id="clip4600">
    <rect x="0" y="0" width="2000" height="2000"></rect>
  </clipPath>
</defs>
<defs>
  <clipPath id="clip4601">
    <rect x="0" y="0" width="2400" height="1600"></rect>
  </clipPath>
</defs>
<polygon clip-path="url(#clip4601)" points="
0,1600 2400,1600 2400,0 0,0 
  " fill="#ffffff" fill-rule="evenodd" fill-opacity="1"></polygon>
<defs>
  <clipPath id="clip4602">
    <rect x="480" y="0" width="1681" height="1600"></rect>
  </clipPath>
</defs>
<polygon clip-path="url(#clip4601)" points="
211.005,1440.48 2321.26,1440.48 2321.26,47.2441 211.005,47.2441 
  " fill="#ffffff" fill-rule="evenodd" fill-opacity="1"></polygon>
<defs>
  <clipPath id="clip4603">
    <rect x="211" y="47" width="2111" height="1394"></rect>
  </clipPath>
</defs>
<polyline clip-path="url(#clip4603)" style="stroke:#000000; stroke-width:2; stroke-opacity:0.1; fill:none" points="
  555.13,1440.48 555.13,47.2441 
  "></polyline>
<polyline clip-path="url(#clip4603)" style="stroke:#000000; stroke-width:2; stroke-opacity:0.1; fill:none" points="
  1123.93,1440.48 1123.93,47.2441 
  "></polyline>
<polyline clip-path="url(#clip4603)" style="stroke:#000000; stroke-width:2; stroke-opacity:0.1; fill:none" points="
  1692.73,1440.48 1692.73,47.2441 
  "></polyline>
<polyline clip-path="url(#clip4603)" style="stroke:#000000; stroke-width:2; stroke-opacity:0.1; fill:none" points="
  2261.54,1440.48 2261.54,47.2441 
  "></polyline>
<polyline clip-path="url(#clip4603)" style="stroke:#000000; stroke-width:2; stroke-opacity:0.1; fill:none" points="
  211.005,1134.94 2321.26,1134.94 
  "></polyline>
<polyline clip-path="url(#clip4603)" style="stroke:#000000; stroke-width:2; stroke-opacity:0.1; fill:none" points="
  211.005,803.34 2321.26,803.34 
  "></polyline>
<polyline clip-path="url(#clip4603)" style="stroke:#000000; stroke-width:2; stroke-opacity:0.1; fill:none" points="
  211.005,471.742 2321.26,471.742 
  "></polyline>
<polyline clip-path="url(#clip4603)" style="stroke:#000000; stroke-width:2; stroke-opacity:0.1; fill:none" points="
  211.005,140.144 2321.26,140.144 
  "></polyline>
<polyline clip-path="url(#clip4601)" style="stroke:#000000; stroke-width:4; stroke-opacity:1; fill:none" points="
  211.005,1440.48 2321.26,1440.48 
  "></polyline>
<polyline clip-path="url(#clip4601)" style="stroke:#000000; stroke-width:4; stroke-opacity:1; fill:none" points="
  211.005,1440.48 211.005,47.2441 
  "></polyline>
<polyline clip-path="url(#clip4601)" style="stroke:#000000; stroke-width:4; stroke-opacity:1; fill:none" points="
  555.13,1440.48 555.13,1419.58 
  "></polyline>
<polyline clip-path="url(#clip4601)" style="stroke:#000000; stroke-width:4; stroke-opacity:1; fill:none" points="
  1123.93,1440.48 1123.93,1419.58 
  "></polyline>
<polyline clip-path="url(#clip4601)" style="stroke:#000000; stroke-width:4; stroke-opacity:1; fill:none" points="
  1692.73,1440.48 1692.73,1419.58 
  "></polyline>
<polyline clip-path="url(#clip4601)" style="stroke:#000000; stroke-width:4; stroke-opacity:1; fill:none" points="
  2261.54,1440.48 2261.54,1419.58 
  "></polyline>
<polyline clip-path="url(#clip4601)" style="stroke:#000000; stroke-width:4; stroke-opacity:1; fill:none" points="
  211.005,1134.94 242.659,1134.94 
  "></polyline>
<polyline clip-path="url(#clip4601)" style="stroke:#000000; stroke-width:4; stroke-opacity:1; fill:none" points="
  211.005,803.34 242.659,803.34 
  "></polyline>
<polyline clip-path="url(#clip4601)" style="stroke:#000000; stroke-width:4; stroke-opacity:1; fill:none" points="
  211.005,471.742 242.659,471.742 
  "></polyline>
<polyline clip-path="url(#clip4601)" style="stroke:#000000; stroke-width:4; stroke-opacity:1; fill:none" points="
  211.005,140.144 242.659,140.144 
  "></polyline>
<g clip-path="url(#clip4601)">
<text style="fill:#000000; fill-opacity:1; font-family:Arial,Helvetica Neue,Helvetica,sans-serif; font-size:48px; text-anchor:middle;" transform="rotate(0, 555.13, 1494.48)" x="555.13" y="1494.48">2</text>
</g>
<g clip-path="url(#clip4601)">
<text style="fill:#000000; fill-opacity:1; font-family:Arial,Helvetica Neue,Helvetica,sans-serif; font-size:48px; text-anchor:middle;" transform="rotate(0, 1123.93, 1494.48)" x="1123.93" y="1494.48">4</text>
</g>
<g clip-path="url(#clip4601)">
<text style="fill:#000000; fill-opacity:1; font-family:Arial,Helvetica Neue,Helvetica,sans-serif; font-size:48px; text-anchor:middle;" transform="rotate(0, 1692.73, 1494.48)" x="1692.73" y="1494.48">6</text>
</g>
<g clip-path="url(#clip4601)">
<text style="fill:#000000; fill-opacity:1; font-family:Arial,Helvetica Neue,Helvetica,sans-serif; font-size:48px; text-anchor:middle;" transform="rotate(0, 2261.54, 1494.48)" x="2261.54" y="1494.48">8</text>
</g>
<g clip-path="url(#clip4601)">
<text style="fill:#000000; fill-opacity:1; font-family:Arial,Helvetica Neue,Helvetica,sans-serif; font-size:48px; text-anchor:end;" transform="rotate(0, 187.005, 1152.44)" x="187.005" y="1152.44">10</text>
</g>
<g clip-path="url(#clip4601)">
<text style="fill:#000000; fill-opacity:1; font-family:Arial,Helvetica Neue,Helvetica,sans-serif; font-size:48px; text-anchor:end;" transform="rotate(0, 187.005, 820.84)" x="187.005" y="820.84">15</text>
</g>
<g clip-path="url(#clip4601)">
<text style="fill:#000000; fill-opacity:1; font-family:Arial,Helvetica Neue,Helvetica,sans-serif; font-size:48px; text-anchor:end;" transform="rotate(0, 187.005, 489.242)" x="187.005" y="489.242">20</text>
</g>
<g clip-path="url(#clip4601)">
<text style="fill:#000000; fill-opacity:1; font-family:Arial,Helvetica Neue,Helvetica,sans-serif; font-size:48px; text-anchor:end;" transform="rotate(0, 187.005, 157.644)" x="187.005" y="157.644">25</text>
</g>
<g clip-path="url(#clip4601)">
<text style="fill:#000000; fill-opacity:1; font-family:Arial,Helvetica Neue,Helvetica,sans-serif; font-size:66px; text-anchor:middle;" transform="rotate(0, 1266.13, 1590.4)" x="1266.13" y="1590.4">Threads count</text>
</g>
<g clip-path="url(#clip4601)">
<text style="fill:#000000; fill-opacity:1; font-family:Arial,Helvetica Neue,Helvetica,sans-serif; font-size:66px; text-anchor:middle;" transform="rotate(-90, 57.6, 743.863)" x="57.6" y="743.863">Time[s]</text>
</g>
<polyline clip-path="url(#clip4603)" style="stroke:#009af9; stroke-width:4; stroke-opacity:1; fill:none" points="
  270.729,86.6754 555.13,887.637 1123.93,1246.58 2261.54,1401.05 
  "></polyline>
<polygon clip-path="url(#clip4601)" points="
1958.43,251.724 2249.26,251.724 2249.26,130.764 1958.43,130.764 
  " fill="#ffffff" fill-rule="evenodd" fill-opacity="1"></polygon>
<polyline clip-path="url(#clip4601)" style="stroke:#000000; stroke-width:4; stroke-opacity:1; fill:none" points="
  1958.43,251.724 2249.26,251.724 2249.26,130.764 1958.43,130.764 1958.43,251.724 
  "></polyline>
<polyline clip-path="url(#clip4601)" style="stroke:#009af9; stroke-width:4; stroke-opacity:1; fill:none" points="
  1982.43,191.244 2126.43,191.244 
  "></polyline>
<g clip-path="url(#clip4601)">
<text style="fill:#000000; fill-opacity:1; font-family:Arial,Helvetica Neue,Helvetica,sans-serif; font-size:48px; text-anchor:start;" transform="rotate(0, 2150.43, 208.744)" x="2150.43" y="208.744">y1</text>
</g>
</svg>
